<svg xmlns="http://www.w3.org/2000/svg" xmlns:xlink="http://www.w3.org/1999/xlink" fill="none" version="1.1" width="324" height="168.523681640625" viewBox="0 0 324 168.523681640625"><defs><clipPath id="master_svg0_964_60405"><rect x="0" y="0" width="324" height="168.523681640625" rx="0"/></clipPath><linearGradient x1="1" y1="0.9347693920135498" x2="0.01720556430518627" y2="0.016083234921097755" id="master_svg1_54_490"><stop offset="0%" stop-color="#E8F6FF" stop-opacity="0.5653682351112366"/><stop offset="100%" stop-color="#97C2FC" stop-opacity="1"/></linearGradient><filter id="master_svg2_964_60453" filterUnits="objectBoundingBox" color-interpolation-filters="sRGB" x="-24" y="-22" width="117" height="111.00037384033203"><feFlood flood-opacity="0" result="BackgroundImageFix"/><feColorMatrix in="SourceAlpha" type="matrix" values="0 0 0 0 0 0 0 0 0 0 0 0 0 0 0 0 0 0 127 0"/><feOffset dy="2" dx="0"/><feGaussianBlur stdDeviation="6"/><feColorMatrix type="matrix" values="0 0 0 0 0.2101721465587616 0 0 0 0 0.5821030735969543 0 0 0 0 0.9148833751678467 0 0 0 0.3057801425457001 0"/><feBlend mode="normal" in2="BackgroundImageFix" result="effect1_dropShadow"/><feBlend mode="normal" in="SourceGraphic" in2="effect1_dropShadow" result="shape"/></filter><linearGradient x1="0.5" y1="0" x2="0.5" y2="1" id="master_svg3_54_510"><stop offset="0%" stop-color="#FFFFFF" stop-opacity="1"/><stop offset="100%" stop-color="#E4F1FF" stop-opacity="1"/></linearGradient><filter id="master_svg4_964_62302" filterUnits="objectBoundingBox" color-interpolation-filters="sRGB" x="-24" y="-22" width="78.00000190734863" height="84"><feFlood flood-opacity="0" result="BackgroundImageFix"/><feColorMatrix in="SourceAlpha" type="matrix" values="0 0 0 0 0 0 0 0 0 0 0 0 0 0 0 0 0 0 127 0"/><feOffset dy="2" dx="0"/><feGaussianBlur stdDeviation="6"/><feColorMatrix type="matrix" values="0 0 0 0 0.2101721465587616 0 0 0 0 0.5821030735969543 0 0 0 0 0.9148833751678467 0 0 0 0.3057801425457001 0"/><feBlend mode="normal" in2="BackgroundImageFix" result="effect1_dropShadow"/><feBlend mode="normal" in="SourceGraphic" in2="effect1_dropShadow" result="shape"/></filter><linearGradient x1="0.5" y1="0" x2="0.5" y2="1" id="master_svg5_54_510"><stop offset="0%" stop-color="#FFFFFF" stop-opacity="1"/><stop offset="100%" stop-color="#E4F1FF" stop-opacity="1"/></linearGradient></defs><g style="mix-blend-mode:passthrough" clip-path="url(#master_svg0_964_60405)"><g style="opacity:0.5043480396270752;mix-blend-mode:passthrough"><path d="M71,168Q97.5163,55.008,198,0.00804219L0,0L0,168L71,168Z" fill-rule="evenodd" fill="#BEDDFF" fill-opacity="1"/></g><g style="opacity:0.5328776240348816;mix-blend-mode:passthrough"><path d="M92,168L115.45,168Q167.3394,17.5,357,0L231.268,0Q112.9554,62,92,168Z" fill="#3883F8" fill-opacity="0.06397508829832077"/></g><g style="mix-blend-mode:passthrough"><g style="opacity:0.468168705701828;mix-blend-mode:passthrough"><path d="M157.56578803771973,37.74091776782227L171.14459803771973,41.37936076782226L174.85779803771973,55.23708076782226L164.71329803771974,65.38158076782227L150.85557803771974,61.66838076782227L147.14242003771972,47.810730767822264L157.28694803771972,37.66620276782226L157.56578803771973,37.74091776782227ZM157.30696803771974,38.706843767822264L157.43637803771972,38.223880767822266L157.78989803771972,38.577433767822264L148.05365103771973,48.31368076782226L147.70009803771973,47.960160767822266L148.18306103771974,47.830750767822266L151.74678803771974,61.130780767822266L151.26381803771972,61.26018076782226L151.39322803771972,60.777180767822266L164.69319803771972,64.34088076782227L164.56379803771972,64.82388076782226L164.21029803771972,64.47028076782226L173.94649803771972,54.73408076782226L174.30009803771972,55.08758076782227L173.81709803771972,55.216980767822264L170.25339803771973,41.91701076782226L170.73639803771974,41.78760076782227L170.60699803771973,42.270570767822264L157.30696803771974,38.706843767822264Z" fill="#DBECFF" fill-opacity="1"/></g><g style="opacity:0.1712472140789032;mix-blend-mode:passthrough"><path d="M156.0384,32.04072245532227L175.3172,37.20647545532226L180.5577,56.76418545532226L166.2405,71.08138545532226L146.68279,65.84088545532227L141.442322,46.28318545532227L155.7595,31.966007455322266L156.0384,32.04072245532227ZM155.7796,33.006648455322264L155.909,32.523685455322266L156.2625,32.877238455322264L142.353553,46.78618545532227L142,46.432685455322265L142.482963,46.30328545532227L147.574,65.30328545532227L147.09103,65.43268545532226L147.22044,64.94968545532227L166.2204,70.04068545532226L166.091,70.52368545532227L165.7375,70.17008545532227L179.6464,56.26118545532226L180,56.61468545532227L179.517,56.744085455322264L174.426,37.74412545532226L174.909,37.61471545532227L174.77960000000002,38.097685455322264L155.7796,33.006648455322264Z" fill="#DBECFF" fill-opacity="1"/></g><g style="opacity:0.9231770634651184;mix-blend-mode:passthrough"><path d="M158.63453375,42.98261698657227L167.46339375,45.348299986572265L169.90379375,54.45597998657227L163.23649375,61.123279986572264L154.12881375,58.68287998657227L151.68841575,49.57518998657227L158.35569375,42.90790198657226L158.63453375,42.98261698657227ZM158.37571375,43.948542986572264L158.50512375,43.465579986572266L158.85868375,43.819132986572264L152.59964675,50.07816998657226L152.24609375,49.724619986572264L152.72905675,49.595209986572264L155.02002375,58.145179986572266L154.53706375,58.27457998657226L154.66647375,57.79167998657226L163.21649375,60.08257998657227L163.08709375,60.56557998657227L162.73349375,60.21197998657227L168.99249375,53.95297998657227L169.34609375,54.30657998657227L168.86309375,54.435979986572264L166.57219375,45.885949986572264L167.05509375,45.75654998657227L166.92569375,46.239509986572266L158.37571375,43.948542986572264Z" fill="#DBECFF" fill-opacity="1"/></g><g style="opacity:0.9231770634651184;mix-blend-mode:passthrough"><path d="M164.8249705722046,48.39393029907227L166.22500057220458,53.61893029907227L162.4000305722046,57.44390029907227L157.17503057220458,56.043860299072264L155.7750005722046,50.818870299072266L159.5999705722046,46.993900299072266L164.8249705722046,48.39393029907227Z" fill="#DCECFE" fill-opacity="1"/></g></g><g style="mix-blend-mode:passthrough"><g style="opacity:0.468168705701828;mix-blend-mode:passthrough" transform="matrix(0.6691306829452515,0.7431448101997375,-0.7431448101997375,0.6691306829452515,134.73036866905244,-93.06204740678629)"><path d="M185.6116760192871,104.29071487225342L204.4772760192871,109.34584687225342L209.6072760192871,128.49037687225342L195.5922760192871,142.5054768722534L176.4476160192871,137.37547687225342L171.3178990192871,118.23067687225341L185.3328760192871,104.21599887225342L185.6116760192871,104.29071487225342ZM185.35287601928712,105.25663887225342L185.4822760192871,104.77367687225342L185.8358760192871,105.12723387225341L172.22912601928712,118.73367687225343L171.8755760192871,118.38017687225341L172.35854001928712,118.25077687225343L177.3388360192871,136.83787687225342L176.8558660192871,136.96727687225342L176.98528601928712,136.48427687225342L195.5722760192871,141.46487687225343L195.4428760192871,141.94777687225343L195.0892760192871,141.59427687225343L208.69597601928712,127.98737687225342L209.04957601928712,128.3409768722534L208.5665760192871,128.4703768722534L203.5860760192871,109.88350687225342L204.0690760192871,109.75409687225341L203.9396760192871,110.23705687225342L185.35287601928712,105.25663887225342Z" fill="#DBECFF" fill-opacity="1"/></g><g style="opacity:0.1712472140789032;mix-blend-mode:passthrough" transform="matrix(0.6691306233406067,0.7431448698043823,-0.7431448698043823,0.6691306233406067,126.56512409173979,-97.2225814812864)"><path d="M192.0326976989746,93.04071101123047L218.86449769897462,100.23018401123046L226.1287976989746,127.34087401123047L206.28249769897462,147.18717401123047L179.1716876989746,139.92297401123045L171.90762169897462,112.81237401123047L191.7538976989746,92.96599701123047L192.0326976989746,93.04071101123047ZM191.77389769897462,94.00663701123047L191.9032976989746,93.52367401123047L192.2568976989746,93.87722601123046L172.8188516989746,113.31537401123046L172.4652976989746,112.96177401123046L172.94826169897462,112.83237401123047L180.0628976989746,139.38527401123048L179.57993769897462,139.51467401123045L179.70933769897462,139.03177401123048L206.2624976989746,146.14647401123045L206.1330976989746,146.62947401123046L205.7794976989746,146.27587401123048L225.21749769897463,126.83787401123047L225.5710976989746,127.19147401123047L225.0880976989746,127.32087401123047L217.97319769897462,100.76784401123047L218.45619769897462,100.63843401123047L218.32679769897462,101.12139401123046L191.77389769897462,94.00663701123047Z" fill="#DBECFF" fill-opacity="1"/></g><g style="opacity:0.9231770634651184;mix-blend-mode:passthrough" transform="matrix(0.6691306233406067,0.7431448101997375,-0.7431448101997375,0.6691305637359619,141.48744972686848,-88.9917485227038)"><path d="M179.55959546875,113.9141707808838L191.78710546874998,117.19039478088379L195.13850546875,129.6969347808838L185.98310546875,138.85233478088378L173.47649546875,135.5010347808838L170.12542746875,122.99453478088378L179.28076546875,113.83946078088378L179.55959546875,113.9141707808838ZM179.30078546875,114.88009878088378L179.43018546875,114.39713478088379L179.78373546875,114.7506927808838L171.03665346875,123.4975347808838L170.68310546875,123.1439747808838L171.16606846875,123.01456478088379L174.36770546875,134.9634347808838L173.88474546875,135.09283478088378L174.01415546875,134.6098347808838L185.96310546875,137.8117347808838L185.83370546875,138.2947347808838L185.48010546875,137.9411347808838L194.22720546875001,129.19393478088378L194.58080546875,129.54753478088378L194.09780546875,129.67693478088378L190.89590546875002,117.72806478088378L191.37890546875,117.59864478088379L191.24950546875,118.08161478088378L179.30078546875,114.88009878088378Z" fill="#DBECFF" fill-opacity="1"/></g><g style="opacity:0.9231770634651184;mix-blend-mode:passthrough" transform="matrix(0.6691306233406067,0.7431448101997375,-0.7431448101997375,0.6691306233406067,146.54232864686037,-86.41633992145216)"><path d="M182.96600596923827,123.31830463623047L184.9222059692383,130.62039463623046L179.57677596923827,135.96586463623046L172.27504596923828,134.00916463623048L170.31830596923828,126.70727463623047L175.6637759692383,121.36156463623047L182.96600596923827,123.31830463623047Z" fill-rule="evenodd" fill="#DCECFE" fill-opacity="1"/></g></g><g style="opacity:0.6034691333770752;mix-blend-mode:passthrough"><path d="M170,54.2059375L170,117.7144375C170,119.8584375,168.856,121.8384375,167,122.9104375L112,154.6644375C110.14359999999999,155.7364375,107.85640000000001,155.7364375,106,154.6644375L51,122.9104375C49.14359,121.8384375,48,119.8584375,48,117.7144375L48,54.2059375C48,52.0623375,49.14359,50.0815375,51,49.0097375L106,17.2554875C107.85640000000001,16.1836915,110.14359999999999,16.1836915,112,17.2554875L167,49.0097375C168.856,50.0815375,170,52.0623375,170,54.2059375" fill-rule="evenodd" fill="url(#master_svg1_54_490)" fill-opacity="1"/></g><g style="opacity:0.46975910663604736;mix-blend-mode:passthrough"><path d="M172.5186515625,23.234142187499998L172.5186515625,42.3059421875C172.5186515625,44.4495421875,171.3750515625,46.4303421875,169.5186515625,47.5020421875L153.00205156250001,57.0379421875C151.1456515625,58.1097421875,148.8584515625,58.1097421875,147.00205156250001,57.0379421875L130.4853515625,47.5020421875C128.6289415625,46.4303421875,127.4853515625,44.4495421875,127.4853515625,42.3059421875L127.48535156250001,23.234142187499998C127.4853515625,21.0905421875,128.6289415625,19.1097421875,130.4853515625,18.0379421875L147.00205156250001,8.5020901875C148.8584515625,7.4302931875,151.1456515625,7.4302931875,153.00205156250001,8.5020901875L169.5186515625,18.0379421875C171.3750515625,19.1097421875,172.5186515625,21.0905421875,172.5186515625,23.234142187499998Z" fill-rule="evenodd" fill="#C1DEFF" fill-opacity="1"/></g><g style="mix-blend-mode:passthrough" filter="url(#master_svg2_964_60453)"><path d="M120.09,106.9628L85.91713,73.5429C82.9168,71.0068,82.59583,70.0281,82.76253,69.0708L83.01313,67.5907C83.18842,66.5472,83.69799,65.57798,84.47146000000001,64.81438L92.4821,56.980403C93.265,56.203239,94.4113,55.855539,95.5277,56.0554969L99.4778,56.772552C100.16159999999999,56.900663,100.7868,57.22327,101.2704,57.69746L145,100.4644L125.71459999999999,108.5463C123.68469999999999,109.0024,121.5625,108.40180000000001,120.09,106.9628ZM118.99629999999999,111.9999L82.40233,76.2129L76.892578,78.36789999999999L113.3625,114.0347C114.70689999999999,115.3668,116.6094,116.06479999999999,118.5539,115.9391C120.499,115.8126,122.2826,114.8766,123.42060000000001,113.384L125.93950000000001,110.1671L119.87039999999999,112.19800000000001C119.5629,112.2984,119.2218,112.2211,118.99629999999999,111.9999ZM90.6105,99.7348C89.9838,100.3555,89.1155,100.70750000000001,88.2068,100.7089L83.01313,100.7089L83.01313,91.5612L76,89.27340000000001L76,119.0004L83.01313,116.71260000000001L83.01313,107.5647L87.7762,107.5647C90.8167,107.5647,93.7301,106.38300000000001,95.8789,104.28139999999999L97.7286,102.4705L92.7678,97.6211L90.6105,99.7348Z" fill-rule="evenodd" fill="url(#master_svg3_54_510)" fill-opacity="1"/></g><g style="mix-blend-mode:passthrough" filter="url(#master_svg4_964_62302)"><path d="M157,58.7273C157,50.59362,150.2843,44,142,44C133.71573,44,127,50.59362,127,58.7273C127,65.8788,131.73252,72.8485,141,79.67269999999999C141.5926,80.1091,142.4074,80.1091,143,79.67269999999999C152.26749999999998,72.8485,157,65.8788,157,58.7273ZM148.6666,58.7271C148.6666,55.1121,145.6818,52.18164,141.9999,52.18164C138.318,52.18164,135.33325,55.1121,135.33325,58.7271C135.33325,62.342,138.318,65.27250000000001,141.9999,65.27250000000001C145.6818,65.27250000000001,148.6666,62.342,148.6666,58.7271Z" fill-rule="evenodd" fill="url(#master_svg5_54_510)" fill-opacity="1"/></g></g></svg>