<svg viewBox="0 0 297 338" version="1.1" xmlns="http://www.w3.org/2000/svg" xmlns:xlink="http://www.w3.org/1999/xlink">
    <title>LOGO</title>
    <g stroke="none" stroke-width="1" fill="currentColor" fill-rule="evenodd">
        <path d="M61,253 L61,254 C61,258.334914 64.4478378,261.864543 68.7508207,261.996193 L69,262 L170,262 L170.249179,261.996193 C174.552162,261.864543 178,258.334914 178,254 L178,254 L178,253 L179,253 L179,326 C179,332.525457 173.791456,337.834393 167.304975,337.9962 L167,338 L167,338 L72,338 C65.372583,338 60,332.627417 60,326 L60,253 L61,253 Z M237,93 L237.249179,92.9961932 C241.552162,92.8645429 245,89.3349143 245,85 L245,85 L245,84 L246,84 L246,107 C246,113.627417 240.627417,119 234,119 L161,119 L161,9 L288,9 L288.249179,8.99619318 C292.552162,8.86454287 296,5.33491426 296,1 L296,1 L296,0 L297,0 L297,23 C297,29.627417 291.627417,35 285,35 L196,35 L196,51 L288,51 L288.249179,50.9961932 C292.552162,50.8645429 296,47.3349143 296,43 L296,43 L296,42 L297,42 L297,149 C297,155.627417 291.627417,161 285,161 L229,161 L229,178 L288,178 L288.249179,177.996193 C292.552162,177.864543 296,174.334914 296,170 L296,170 L296,169 L297,169 L297,204 L229,204 L229,220 L288,220 L288.249179,219.996193 C292.552162,219.864543 296,216.334914 296,212 L296,212 L296,211 L297,211 L297,246 L229,246 L229,312 L262,312 L262,271 L261.996193,270.750821 C261.864543,266.447838 258.334914,263 254,263 L254,263 L253,263 L253,262 L285,262 C291.627417,262 297,267.372583 297,274 L297,326 C297,332.525457 291.791456,337.834393 285.304975,337.9962 L285,338 L285,338 L206,338 C199.372583,338 194,332.627417 194,326 L194,204 L44,204 L44,326 C44,332.627417 38.627417,338 32,338 L0,338 L-6.123234e-17,337 L1,337 C5.33491426,337 8.86454287,333.552162 8.99619318,329.249179 L9,329 L9,169 L10,169 L10,170 C10,174.334914 13.4478378,177.864543 17.7508207,177.996193 L18,178 L194,178 L194,161 L21,161 C14.372583,161 9,155.627417 9,149 L9,42 L10,42 L10,43 C10,47.3349143 13.4478378,50.8645429 17.7508207,50.9961932 L18,51 L110,51 L110,35 L21,35 C14.372583,35 9,29.627417 9,23 L9,0 L10,0 L10,1 C10,5.33491426 13.4478378,8.86454287 17.7508207,8.99619318 L18,9 L145,9 L145,119 L72,119 C65.372583,119 60,113.627417 60,107 L60,84 L61,84 L61,85 C61,89.3349143 64.4478378,92.8645429 68.7508207,92.9961932 L69,93 L110,93 L110,77 L44,77 L44,135 L262,135 L262,77 L196,77 L196,93 L237,93 Z M144,288 L95,288 L95,312 L144,312 L144,288 Z M61,211 L61,212 C61,216.334914 64.4478378,219.864543 68.7508207,219.996193 L69,220 L170,220 L170.249179,219.996193 C174.552162,219.864543 178,216.334914 178,212 L178,212 L178,211 L179,211 L179,246 L72,246 C65.372583,246 60,240.627417 60,234 L60,211 L61,211 Z"></path>
    </g>
</svg>