<svg xmlns="http://www.w3.org/2000/svg" xmlns:xlink="http://www.w3.org/1999/xlink" fill="none" version="1.1" width="116" height="116" viewBox="0 0 116 116"><defs><clipPath id="master_svg0_10549_13993"><rect x="0" y="0" width="116" height="116" rx="0"/></clipPath><clipPath id="master_svg1_10549_13994"><rect x="0" y="116" width="116" height="116" rx="0"/></clipPath></defs><g style="mix-blend-mode:passthrough" clip-path="url(#master_svg0_10549_13993)"><g style="opacity:0.4000000059604645;mix-blend-mode:passthrough" transform="matrix(1,0,0,-1,0,232)" clip-path="url(#master_svg1_10549_13994)"><g style="opacity:0.20000000298023224;"><path d="M29,116C29,116,0,116,0,116C0,116,0,145,0,145C0,145,29,145,29,145C29,145,29,116,29,116C29,116,29,116,29,116Z" fill-rule="evenodd" fill="#CAD0F4" fill-opacity="1"/></g><g style="opacity:0.20000000298023224;"><path d="M58,174C58,174,29,174,29,174C29,174,29,203,29,203C29,203,58,203,58,203C58,203,58,174,58,174C58,174,58,174,58,174Z" fill-rule="evenodd" fill="#CAD0F4" fill-opacity="1"/></g><g style="opacity:0.20000000298023224;"><path d="M116,203C116,203,87,203,87,203C87,203,87,232,87,232C87,232,116,232,116,232C116,232,116,203,116,203C116,203,116,203,116,203Z" fill-rule="evenodd" fill="#CAD0F4" fill-opacity="1"/></g><g style="opacity:0.30000001192092896;"><path d="M58,145C58,145,29,145,29,145C29,145,58,116,58,116C58,116,58,145,58,145C58,145,58,145,58,145Z" fill-rule="evenodd" fill="#CAD0F4" fill-opacity="1"/></g><g style="opacity:0.30000001192092896;"><path d="M87,203C87,203,87,174,87,174C87,174,116,174,116,174C116,174,87,203,87,203C87,203,87,203,87,203Z" fill-rule="evenodd" fill="#CAD0F4" fill-opacity="1"/></g><g style="opacity:0.5;"><path d="M87,145C87,145,58,145,58,145C58,145,58,174,58,174C58,174,87,174,87,174C87,174,87,145,87,145Z" fill-rule="evenodd" fill="#CAD0F4" fill-opacity="1"/></g><g style="opacity:0.8999999761581421;"><path d="M58,116C58,116,58,145,58,145C58,145,87,145,87,145C87,145,87,174,87,174C87,174,116,174,116,174Q116,174,115.9999,116C96.6666,116,77.33330000000001,116,58,116Z" fill-rule="evenodd" fill="#CAD0F4" fill-opacity="1"/></g></g></g></svg>