<svg xmlns="http://www.w3.org/2000/svg" xmlns:xlink="http://www.w3.org/1999/xlink" fill="none" version="1.1" width="678.8847045898438" height="831.9329223632812" viewBox="0 0 678.8847045898438 831.9329223632812">
    <defs>
      <clipPath id="master_svg0_8810_9709">
        <rect x="0" y="0" width="678.8847045898438" height="831.9329223632812" rx="0" />
      </clipPath>
    </defs>
    <g style="mix-blend-mode:passthrough" clip-path="url(#master_svg0_8810_9709)">
      <g transform="matrix(0.4995165467262268,-0.8663043975830078,0.865746021270752,0.5004836320877075,-570.707978136139,329.2859214746277)">
        <g>
          <ellipse cx="169.6976194381714" cy="868.5007934570312" rx="9.214251518249512" ry="9.20831298828125" fill-opacity="0" stroke-opacity="1" stroke="#DDE1EA" fill="none" stroke-width="2" />
        </g>
        <g>
          <ellipse cx="547.4242124557495" cy="868.5310668945312" rx="9.214251518249512" ry="9.20831298828125" fill-opacity="0" stroke-opacity="1" stroke="#DDE1EA" fill="none" stroke-width="2" />
        </g>
        <g>
          <path d="M199.633766796875,703.75009609375L325.561966796875,703.75009609375L325.561966796875,705.25009609375L324.483966796875,704.20719609375L369.460966796875,657.70849609375L531.346966796875,657.70849609375L531.346966796875,660.70849609375L370.096966796875,660.70849609375L370.096966796875,659.20849609375L371.175966796875,660.25137609375L326.197966796875,706.75009609375L199.633766796875,706.75009609375L199.633766796875,703.75009609375ZM191.187366796875,695.30909609375Q195.307066796875,695.30909609375,198.220166796875,698.22039609375Q201.133766796875,701.13209609375,201.133766796875,705.25009609375Q201.133766796875,709.36799609375,198.220166796875,712.27969609375Q195.306966796875,715.19099609375,191.187366796875,715.19099609375Q187.067716796875,715.19099609375,184.154536796875,712.27969609375Q181.240966796875,709.36799609375,181.240966796875,705.25009609375Q181.240966796875,701.13209609375,184.154536796875,698.22039609375Q187.067716796875,695.30909609375,191.187366796875,695.30909609375ZM191.187366796875,698.30909609375Q188.309786796875,698.30909609375,186.275176796875,700.34239609375Q184.240966796875,702.37529609375,184.240966796875,705.25009609375Q184.240966796875,708.12479609375,186.275176796875,710.15769609375Q188.309786796875,712.19099609375,191.187366796875,712.19099609375Q194.064966796875,712.19099609375,196.099566796875,710.15769609375Q198.133766796875,708.12479609375,198.133766796875,705.25009609375Q198.133766796875,702.37529609375,196.099566796875,700.34239609375Q194.064966796875,698.30909609375,191.187366796875,698.30909609375Z" fill="#DDE1EA" fill-opacity="1" />
        </g>
        <g transform="matrix(-1,0,0,-1,1521.888916015625,2008.6435546875)">
          <path d="M823.9085580078125,1057.30427734375L949.8364580078126,1057.30427734375L949.8364580078126,1058.80427734375L948.7584580078125,1057.76137734375L993.7364580078125,1011.26272734375L1155.6214580078126,1011.26272734375L1155.6214580078126,1014.26272734375L994.3724580078125,1014.26272734375L994.3724580078125,1012.76272734375L995.4504580078125,1013.80561734375L950.4724580078125,1060.30427734375L823.9085580078125,1060.30427734375L823.9085580078125,1057.30427734375ZM1054.2294580078126,1253.71377734375Q1054.2294580078126,1256.90577734375,1056.4884580078124,1259.16377734375Q1058.7474580078124,1261.42177734375,1061.9434580078125,1261.42177734375Q1065.1384580078125,1261.42177734375,1067.3984580078125,1259.16377734375Q1069.6574580078125,1256.90577734375,1069.6574580078125,1253.71377734375Q1069.6574580078125,1250.52077734375,1067.3984580078125,1248.26377734375Q1065.1394580078124,1246.00577734375,1061.9434580078125,1246.00577734375Q1058.7474580078124,1246.00577734375,1056.4884580078124,1248.26377734375Q1054.2294580078126,1250.52077734375,1054.2294580078126,1253.71377734375ZM1051.2294580078126,1253.71377734375Q1051.2294580078126,1249.27777734375,1054.3674580078125,1246.14177734375Q1057.5054580078124,1243.00577734375,1061.9434580078125,1243.00577734375Q1066.3814580078124,1243.00577734375,1069.5194580078125,1246.14177734375Q1072.6574580078125,1249.27777734375,1072.6574580078125,1253.71377734375Q1072.6574580078125,1258.14977734375,1069.5194580078125,1261.28577734375Q1066.3814580078124,1264.42177734375,1061.9434580078125,1264.42177734375Q1057.5054580078124,1264.42177734375,1054.3674580078125,1261.28577734375Q1051.2294580078126,1258.14977734375,1051.2294580078126,1253.71377734375ZM762.4444580078125,1017.36687734375Q762.4444580078125,1020.24167734375,764.4786680078125,1022.27457734375Q766.5132780078125,1024.30787734375,769.3908580078125,1024.30787734375Q772.2684580078125,1024.30787734375,774.3030580078125,1022.27457734375Q776.3372580078125,1020.24167734375,776.3372580078125,1017.36687734375Q776.3372580078125,1014.49217734375,774.3030580078125,1012.45923734375Q772.2684580078125,1010.42593734375,769.3908580078125,1010.42593734375Q766.5132780078125,1010.42593734375,764.4786680078125,1012.45923734375Q762.4444580078125,1014.49217734375,762.4444580078125,1017.36687734375L762.4444580078125,1017.36687734375ZM759.4444580078125,1017.36687734375Q759.4444580078125,1013.24892734375,762.3580280078125,1010.33722734375Q765.2712080078124,1007.42593734375,769.3908580078125,1007.42593734375Q773.5104580078125,1007.42593734375,776.4236580078125,1010.33722734375Q779.3372580078125,1013.24892734375,779.3372580078125,1017.36687734375Q779.3372580078125,1021.48487734375,776.4236580078125,1024.39657734375Q773.5104580078125,1027.30787734375,769.3908580078125,1027.30787734375Q765.2712080078124,1027.30787734375,762.3580280078125,1024.39657734375Q759.4444580078125,1021.48487734375,759.4444580078125,1017.36687734375L759.4444580078125,1017.36687734375ZM808.5157580078125,1058.80427734375Q808.5157580078125,1061.67907734375,810.5499580078125,1063.71197734375Q812.5845580078125,1065.74527734375,815.4621580078125,1065.74527734375Q818.3396580078125,1065.74527734375,820.3742580078125,1063.71197734375Q822.4084580078124,1061.67907734375,822.4085580078125,1058.80427734375Q822.4084580078124,1055.92957734375,820.3742580078125,1053.89667734375Q818.3396580078125,1051.86337734375,815.4621580078125,1051.86337734375Q812.5845580078125,1051.86337734375,810.5499580078125,1053.89667734375Q808.5157580078125,1055.92957734375,808.5157580078125,1058.80427734375ZM805.5157580078125,1058.80427734375Q805.5157580078125,1054.68637734375,808.4292580078125,1051.77467734375Q811.3424580078125,1048.86337734375,815.4621580078125,1048.86337734375Q819.5817580078125,1048.86337734375,822.4949580078126,1051.77467734375Q825.4084580078124,1054.68637734375,825.4085580078125,1058.80427734375Q825.4085580078125,1062.92227734375,822.4949580078126,1065.83397734375Q819.5817580078125,1068.74527734375,815.4621580078125,1068.74527734375Q811.3424580078125,1068.74527734375,808.4292580078125,1065.83397734375Q805.5157580078125,1062.92227734375,805.5157580078125,1058.80427734375ZM1155.5854580078126,1012.76272734375Q1155.5854580078126,1015.63747734375,1157.6204580078124,1017.67037734375Q1159.6544580078125,1019.70367734375,1162.5324580078125,1019.70367734375Q1165.4094580078124,1019.70367734375,1167.4444580078125,1017.67037734375Q1169.4784580078126,1015.63747734375,1169.4784580078126,1012.76272734375Q1169.4784580078126,1009.88796734375,1167.4444580078125,1007.85507734375Q1165.4094580078124,1005.82177734375,1162.5324580078125,1005.82177734375Q1159.6544580078125,1005.82177734375,1157.6204580078124,1007.85507734375Q1155.5854580078126,1009.88796734375,1155.5854580078126,1012.76272734375ZM1152.5854580078126,1012.76272734375Q1152.5854580078126,1008.64478734375,1155.4994580078126,1005.73307734375Q1158.4124580078126,1002.82177734375,1162.5324580078125,1002.82177734375Q1166.6514580078124,1002.82177734375,1169.5654580078126,1005.73307734375Q1172.4784580078126,1008.64473734375,1172.4784580078126,1012.76272734375Q1172.4784580078126,1016.88067734375,1169.5654580078126,1019.79237734375Q1166.6514580078124,1022.70367734375,1162.5324580078125,1022.70367734375Q1158.4124580078126,1022.70367734375,1155.4994580078126,1019.79237734375Q1152.5854580078126,1016.88067734375,1152.5854580078126,1012.76272734375Z" fill="#DDE1EA" fill-opacity="1" />
        </g>
        <g>
          <path d="M62.19638310546875,806.60895078125L174.30318310546875,806.60895078125L174.30318310546875,807.10895078125L173.93918310546874,806.76615078125L198.65818310546874,780.51871078125L261.8381831054688,780.51871078125L261.8381831054688,781.51871078125L198.87418310546875,781.51871078125L198.87418310546875,781.01871078125L199.23818310546875,781.36151078125L174.51918310546876,807.60895078125L62.19638310546875,807.60895078125L62.19638310546875,806.60895078125ZM50.67858310546875,816.58465078125L182.74918310546875,816.58465078125L182.74918310546875,817.08465078125L182.39618310546874,816.73095078125L204.81018310546875,794.33115078125L244.94618310546875,794.33115078125L244.94618310546875,795.33115078125L205.01718310546875,795.33115078125L205.01718310546875,794.83115078125L205.37118310546876,795.18485078125L182.95618310546874,817.58465078125L50.67858310546875,817.58465078125L50.67858310546875,816.58465078125ZM84.46418310546875,827.32765078125L223.44618310546875,827.32765078125L223.44618310546875,828.32765078125L84.46418310546875,828.32765078125L84.46418310546875,827.32765078125ZM0.00160668546875,838.07065078125L269.5181831054687,838.83805078125L269.51518310546874,839.83805078125L-0.00124047453125,839.07065078125L0.00160668546875,838.07065078125ZM62.19638310546875,928.61955078125L174.51018310546874,928.61955078125L200.76318310546876,954.85555078125L200.41018310546875,955.20955078125L200.41018310546875,954.70955078125L261.8381831054688,954.70955078125L261.8381831054688,955.70955078125L200.20318310546875,955.70955078125L173.94918310546876,929.47255078125L174.30318310546875,929.11955078125L174.30318310546875,929.61955078125L62.19638310546875,929.61955078125L62.19638310546875,928.61955078125ZM50.67858310546875,918.64355078125L182.95618310546874,918.64355078125L205.37118310546876,941.04355078125L205.01718310546875,941.39655078125L205.01718310546875,940.89655078125L244.94618310546875,940.89655078125L244.94618310546875,941.89655078125L204.81018310546875,941.89655078125L182.39618310546874,919.49755078125L182.74918310546875,919.14355078125L182.74918310546875,919.64355078125L50.67858310546875,919.64355078125L50.67858310546875,918.64355078125ZM84.46418310546875,907.90055078125L223.44618310546875,907.90055078125L223.44618310546875,908.90055078125L84.46418310546875,908.90055078125L84.46418310546875,907.90055078125ZM-0.00124046453125,897.1575507812499L269.51518310546874,896.38955078125L269.5181831054687,897.38955078125L0.00160667546875,898.1575507812499L-0.00124046453125,897.1575507812499ZM261.3381831054688,781.01871078125Q261.3381831054688,778.90439078125,262.83418310546875,777.40941178125Q264.33018310546873,775.91455078125,266.44518310546874,775.91455078125Q268.56118310546873,775.91455078125,270.05718310546877,777.40941178125Q271.55318310546875,778.90439078125,271.55318310546875,781.01871078125Q271.55318310546875,783.13302078125,270.05718310546877,784.62800078125Q268.56118310546873,786.12286078125,266.44518310546874,786.12286078125Q264.33018310546873,786.12286078125,262.83418310546875,784.62800078125Q261.3381831054688,783.13302078125,261.3381831054688,781.01870078125L261.3381831054688,781.01871078125ZM262.3381831054688,781.01870078125Q262.3381831054688,782.71859078125,263.54118310546875,783.92067078125Q264.7441831054688,785.12286078125,266.44518310546874,785.12286078125Q268.14718310546874,785.12286078125,269.3501831054688,783.92067078125Q270.55318310546875,782.71859078125,270.55318310546875,781.01871078125Q270.55318310546875,779.31882078125,269.3501831054688,778.11674078125Q268.14718310546874,776.91455078125,266.44518310546874,776.91455078125Q264.7441831054688,776.91455078125,263.54118310546875,778.11674078125Q262.3381831054688,779.31882078125,262.3381831054688,781.01871078125L262.3381831054688,781.01870078125ZM244.44618310546875,794.83115078125Q244.44518310546874,792.71685078125,245.94118310546875,791.22185078125Q247.43718310546876,789.72705078125,249.55318310546875,789.72705078125Q251.66818310546876,789.72705078125,253.16418310546874,791.22185078125Q254.66018310546875,792.71685078125,254.66018310546875,794.83115078125Q254.66018310546875,796.94545078125,253.16418310546874,798.44045078125Q251.66818310546876,799.93535078125,249.55318310546875,799.93535078125Q247.43718310546876,799.93535078125,245.94118310546875,798.44045078125Q244.44518310546874,796.94545078125,244.44618310546875,794.83115078125ZM245.44618310546875,794.83115078125Q245.44518310546874,796.53105078125,246.64818310546875,797.73315078125Q247.85118310546875,798.93535078125,249.55318310546875,798.93535078125Q251.25418310546874,798.93535078125,252.45718310546874,797.73315078125Q253.66018310546875,796.53105078125,253.66018310546875,794.83115078125Q253.66018310546875,793.13125078125,252.45718310546874,791.92925078125Q251.25418310546874,790.72705078125,249.55318310546875,790.72705078125Q247.85118310546875,790.72705078125,246.64818310546875,791.92925078125Q245.44618310546875,793.13125078125,245.44618310546875,794.83115078125ZM228.05318310546875,832.93175078125Q225.93718310546876,832.93175078125,224.44218310546876,831.43695078125Q222.94618310546875,829.94195078125,222.94618310546875,827.82765078125Q222.94618310546875,825.71335078125,224.44218310546876,824.21835078125Q225.93718310546876,822.72345078125,228.05318310546875,822.72345078125Q230.16818310546876,822.72345078125,231.66418310546874,824.21835078125Q233.16018310546875,825.71335078125,233.16018310546875,827.82765078125Q233.16018310546875,829.94195078125,231.66418310546874,831.43695078125Q230.16818310546876,832.93175078125,228.05318310546875,832.93175078125ZM228.05318310546875,831.93175078125Q229.75418310546874,831.93175078125,230.95718310546874,830.72955078125Q232.16018310546875,829.52755078125,232.16018310546875,827.82765078125Q232.16018310546875,826.12775078125,230.95718310546874,824.9256507812499Q229.75418310546874,823.72345078125,228.05318310546875,823.72345078125Q226.35118310546875,823.72345078125,225.14818310546875,824.9256507812499Q223.94618310546875,826.12775078125,223.94618310546875,827.82765078125Q223.94618310546875,829.52755078125,225.14818310546875,830.72955078125Q226.35118310546875,831.93175078125,228.05318310546875,831.93175078125ZM75.51778310546875,827.82765078125Q75.51778310546875,825.71335078125,77.01368310546874,824.21835078125Q78.50958310546875,822.72345078125,80.62488310546875,822.72345078125Q82.74028310546875,822.72345078125,84.23608310546875,824.21835078125Q85.73198310546876,825.71335078125,85.73198310546876,827.82765078125Q85.73198310546876,829.94195078125,84.23608310546875,831.43695078125Q82.74028310546875,832.93175078125,80.62488310546875,832.93175078125Q78.50948310546875,832.93175078125,77.01368310546874,831.43695078125Q75.51778310546875,829.94195078125,75.51778310546875,827.82765078125ZM76.51778310546875,827.82765078125Q76.51778310546875,829.52755078125,77.72058310546875,830.72955078125Q78.92358310546875,831.93175078125,80.62488310546875,831.93175078125Q82.32618310546874,831.93175078125,83.52918310546875,830.72955078125Q84.73198310546876,829.52755078125,84.73198310546876,827.82765078125Q84.73198310546876,826.12775078125,83.52918310546875,824.9256507812499Q82.32618310546874,823.72345078125,80.62488310546875,823.72345078125Q78.92358310546875,823.72345078125,77.72058310546875,824.9256507812499Q76.51778310546875,826.12775078125,76.51778310546875,827.82765078125ZM262.3381831054688,955.20955078125Q262.3381831054688,956.90955078125,263.54118310546875,958.11155078125Q264.7441831054688,959.31355078125,266.44518310546874,959.31355078125Q268.14718310546874,959.31355078125,269.3501831054688,958.11155078125Q270.55318310546875,956.90955078125,270.55318310546875,955.20955078125Q270.55318310546875,953.50955078125,269.3501831054688,952.30755078125Q268.14718310546874,951.10555078125,266.44518310546874,951.10555078125Q264.7441831054688,951.10555078125,263.54118310546875,952.30755078125Q262.3381831054688,953.50955078125,262.3381831054688,955.20955078125ZM261.3381831054688,955.20955078125Q261.3381831054688,953.0945507812501,262.83418310546875,951.59955078125Q264.33018310546873,950.10555078125,266.44518310546874,950.10555078125Q268.56118310546873,950.10555078125,270.05718310546877,951.59955078125Q271.55318310546875,953.0945507812501,271.55318310546875,955.20955078125Q271.55318310546875,957.32355078125,270.05718310546877,958.81855078125Q268.56118310546873,960.31355078125,266.44518310546874,960.31355078125Q264.33018310546873,960.31355078125,262.83418310546875,958.81855078125Q261.3381831054688,957.32355078125,261.3381831054688,955.20955078125ZM245.44618310546875,941.39655078125Q245.44618310546875,943.09655078125,246.64818310546875,944.29855078125Q247.85118310546875,945.50055078125,249.55318310546875,945.50055078125Q251.25418310546874,945.50055078125,252.45718310546874,944.29855078125Q253.66018310546875,943.09655078125,253.66018310546875,941.39655078125Q253.66018310546875,939.69655078125,252.45718310546874,938.49455078125Q251.25418310546874,937.2925507812499,249.55318310546875,937.2925507812499Q247.85118310546875,937.2925507812499,246.64818310546875,938.49455078125Q245.44518310546874,939.69655078125,245.44618310546875,941.39655078125ZM244.44618310546875,941.39655078125Q244.44518310546874,939.2825507812499,245.94118310546875,937.78755078125Q247.43718310546876,936.2925507812499,249.55318310546875,936.2925507812499Q251.66818310546876,936.2925507812499,253.16418310546874,937.78755078125Q254.66018310546875,939.2825507812499,254.66018310546875,941.39655078125Q254.66018310546875,943.51155078125,253.16418310546874,945.00655078125Q251.66818310546876,946.50055078125,249.55318310546875,946.50055078125Q247.43718310546876,946.50055078125,245.94118310546875,945.00655078125Q244.44618310546875,943.51155078125,244.44618310546875,941.39655078125ZM228.05318310546875,904.2965507812501Q226.35118310546875,904.2965507812501,225.14818310546875,905.4985507812501Q223.94618310546875,906.7005507812501,223.94618310546875,908.40055078125Q223.94618310546875,910.10055078125,225.14818310546875,911.30255078125Q226.35118310546875,912.50455078125,228.05318310546875,912.50455078125Q229.75418310546874,912.50455078125,230.95718310546874,911.30255078125Q232.16018310546875,910.10055078125,232.16018310546875,908.40055078125Q232.16018310546875,906.7005507812501,230.95718310546874,905.4985507812501Q229.75418310546874,904.2965507812501,228.05318310546875,904.2965507812501ZM228.05318310546875,903.2965507812501Q230.16818310546876,903.2965507812501,231.66418310546874,904.79155078125Q233.16018310546875,906.2865507812501,233.16018310546875,908.40055078125Q233.16018310546875,910.51455078125,231.66418310546874,912.00955078125Q230.16818310546876,913.50455078125,228.05318310546875,913.50455078125Q225.93718310546876,913.50455078125,224.44218310546876,912.00955078125Q222.94618310546875,910.51455078125,222.94618310546875,908.40055078125Q222.94618310546875,906.2865507812501,224.44218310546876,904.79155078125Q225.93718310546876,903.2965507812501,228.05318310546875,903.2965507812501ZM76.51778310546875,908.40055078125Q76.51778310546875,910.10055078125,77.72058310546875,911.30255078125Q78.92358310546875,912.50455078125,80.62488310546875,912.50455078125Q82.32618310546874,912.50455078125,83.52918310546875,911.30255078125Q84.73198310546876,910.10055078125,84.73198310546876,908.40055078125Q84.73198310546876,906.7005507812501,83.52918310546875,905.4985507812501Q82.32618310546874,904.2965507812501,80.62488310546875,904.2965507812501Q78.92358310546875,904.2965507812501,77.72058310546875,905.4985507812501Q76.51778310546875,906.7005507812501,76.51778310546875,908.40055078125ZM75.51778310546875,908.40055078125Q75.51778310546875,906.2865507812501,77.01368310546874,904.79155078125Q78.50948310546875,903.2965507812501,80.62488310546875,903.2965507812501Q82.74028310546875,903.2965507812501,84.23608310546875,904.79155078125Q85.73198310546876,906.2865507812501,85.73198310546876,908.40055078125Q85.73198310546876,910.51455078125,84.23608310546875,912.00955078125Q82.74028310546875,913.50455078125,80.62488310546875,913.50455078125Q78.50958310546875,913.50455078125,77.01368310546874,912.00955078125Q75.51778310546875,910.51455078125,75.51778310546875,908.40055078125Z" fill="#DDE1EA" fill-opacity="1" />
        </g>
        <g transform="matrix(-1,0,0,1,1435.889404296875,0)">
          <path d="M780.1409021484375,806.60992734375L892.2477021484375,806.60992734375L892.2477021484375,807.10992734375L891.8837021484375,806.76712734375L916.6027021484375,780.51968734375L979.7827021484375,780.51968734375L979.7827021484375,781.51968734375L916.8187021484375,781.51968734375L916.8187021484375,781.01968734375L917.1827021484376,781.36248734375L892.4637021484375,807.60992734375L780.1409021484375,807.60992734375L780.1409021484375,806.60992734375ZM768.6231021484375,816.58562734375L900.6937021484375,816.58562734375L900.6937021484375,817.08562734375L900.3407021484375,816.73192734375L922.7547021484374,794.33212734375L962.8907021484375,794.33212734375L962.8907021484375,795.33212734375L922.9617021484376,795.33212734375L922.9617021484376,794.83212734375L923.3157021484375,795.18582734375L900.9007021484375,817.58562734375L768.6231021484375,817.58562734375L768.6231021484375,816.58562734375ZM802.4087021484374,827.32862734375L941.3907021484375,827.32862734375L941.3907021484375,828.32862734375L802.4087021484374,828.32862734375L802.4087021484374,827.32862734375ZM717.9461257284376,838.07162734375L987.4627021484375,838.83902734375L987.4597021484375,839.83902734375L717.9432785684374,839.07162734375L717.9461257284376,838.07162734375ZM780.1409021484375,928.62052734375L892.4547021484375,928.62052734375L918.7077021484375,954.85652734375L918.3547021484375,955.21052734375L918.3547021484375,954.71052734375L979.7827021484375,954.71052734375L979.7827021484375,955.71052734375L918.1477021484375,955.71052734375L891.8937021484376,929.47352734375L892.2477021484375,929.12052734375L892.2477021484375,929.62052734375L780.1409021484375,929.62052734375L780.1409021484375,928.62052734375ZM768.6231021484375,918.64452734375L900.9007021484375,918.64452734375L923.3157021484375,941.04452734375L922.9617021484376,941.39752734375L922.9617021484376,940.89752734375L962.8907021484375,940.89752734375L962.8907021484375,941.89752734375L922.7547021484374,941.89752734375L900.3407021484375,919.49852734375L900.6937021484375,919.14452734375L900.6937021484375,919.64452734375L768.6231021484375,919.64452734375L768.6231021484375,918.64452734375ZM802.4087021484374,907.90152734375L941.3907021484375,907.90152734375L941.3907021484375,908.90152734375L802.4087021484374,908.90152734375L802.4087021484374,907.90152734375ZM717.9432785784375,897.1585273437499L987.4597021484375,896.39052734375L987.4627021484375,897.39052734375L717.9461257184375,898.1585273437499L717.9432785784375,897.1585273437499ZM979.2827021484375,781.01968734375Q979.2827021484375,778.90536734375,980.7787021484376,777.41038834375Q982.2747021484374,775.91552734375,984.3897021484374,775.91552734375Q986.5057021484374,775.91552734375,988.0017021484375,777.41038834375Q989.4977021484375,778.90536734375,989.4977021484375,781.01968734375Q989.4977021484375,783.13399734375,988.0017021484375,784.62897734375Q986.5057021484374,786.12383734375,984.3897021484374,786.12383734375Q982.2747021484374,786.12383734375,980.7787021484376,784.62897734375Q979.2827021484375,783.13399734375,979.2827021484375,781.01967734375L979.2827021484375,781.01968734375ZM980.2827021484375,781.01967734375Q980.2827021484375,782.71956734375,981.4857021484374,783.92164734375Q982.6887021484375,785.12383734375,984.3897021484374,785.12383734375Q986.0917021484374,785.12383734375,987.2947021484375,783.92164734375Q988.4977021484375,782.71956734375,988.4977021484375,781.01968734375Q988.4977021484375,779.31979734375,987.2947021484375,778.11771734375Q986.0917021484374,776.91552734375,984.3897021484374,776.91552734375Q982.6887021484375,776.91552734375,981.4857021484374,778.11771734375Q980.2827021484375,779.31979734375,980.2827021484375,781.01968734375L980.2827021484375,781.01967734375ZM962.3907021484375,794.83212734375Q962.3897021484374,792.71782734375,963.8857021484375,791.22282734375Q965.3817021484375,789.72802734375,967.4977021484375,789.72802734375Q969.6127021484375,789.72802734375,971.1087021484375,791.22282734375Q972.6047021484375,792.71782734375,972.6047021484375,794.83212734375Q972.6047021484375,796.94642734375,971.1087021484375,798.44142734375Q969.6127021484375,799.93632734375,967.4977021484375,799.93632734375Q965.3817021484375,799.93632734375,963.8857021484375,798.44142734375Q962.3897021484374,796.94642734375,962.3907021484375,794.83212734375ZM963.3907021484375,794.83212734375Q963.3897021484374,796.53202734375,964.5927021484375,797.73412734375Q965.7957021484375,798.93632734375,967.4977021484375,798.93632734375Q969.1987021484375,798.93632734375,970.4017021484375,797.73412734375Q971.6047021484375,796.53202734375,971.6047021484375,794.83212734375Q971.6047021484375,793.13222734375,970.4017021484375,791.93022734375Q969.1987021484375,790.72802734375,967.4977021484375,790.72802734375Q965.7957021484375,790.72802734375,964.5927021484375,791.93022734375Q963.3907021484375,793.13222734375,963.3907021484375,794.83212734375ZM945.9977021484375,832.93272734375Q943.8817021484375,832.93272734375,942.3867021484375,831.43792734375Q940.8907021484375,829.94292734375,940.8907021484375,827.82862734375Q940.8907021484375,825.71432734375,942.3867021484375,824.21932734375Q943.8817021484375,822.72442734375,945.9977021484375,822.72442734375Q948.1127021484375,822.72442734375,949.6087021484375,824.21932734375Q951.1047021484375,825.71432734375,951.1047021484375,827.82862734375Q951.1047021484375,829.94292734375,949.6087021484375,831.43792734375Q948.1127021484375,832.93272734375,945.9977021484375,832.93272734375ZM945.9977021484375,831.93272734375Q947.6987021484375,831.93272734375,948.9017021484375,830.73052734375Q950.1047021484375,829.52852734375,950.1047021484375,827.82862734375Q950.1047021484375,826.12872734375,948.9017021484375,824.9266273437499Q947.6987021484375,823.72442734375,945.9977021484375,823.72442734375Q944.2957021484375,823.72442734375,943.0927021484375,824.9266273437499Q941.8907021484375,826.12872734375,941.8907021484375,827.82862734375Q941.8907021484375,829.52852734375,943.0927021484375,830.73052734375Q944.2957021484375,831.93272734375,945.9977021484375,831.93272734375ZM793.4623021484375,827.82862734375Q793.4623021484375,825.71432734375,794.9582021484375,824.21932734375Q796.4541021484375,822.72442734375,798.5694021484375,822.72442734375Q800.6848021484375,822.72442734375,802.1806021484375,824.21932734375Q803.6765021484375,825.71432734375,803.6765021484375,827.82862734375Q803.6765021484375,829.94292734375,802.1806021484375,831.43792734375Q800.6848021484375,832.93272734375,798.5694021484375,832.93272734375Q796.4540021484374,832.93272734375,794.9582021484375,831.43792734375Q793.4623021484375,829.94292734375,793.4623021484375,827.82862734375ZM794.4623021484375,827.82862734375Q794.4623021484375,829.52852734375,795.6651021484375,830.73052734375Q796.8681021484375,831.93272734375,798.5694021484375,831.93272734375Q800.2707021484375,831.93272734375,801.4737021484375,830.73052734375Q802.6765021484375,829.52852734375,802.6765021484375,827.82862734375Q802.6765021484375,826.12872734375,801.4737021484375,824.9266273437499Q800.2707021484375,823.72442734375,798.5694021484375,823.72442734375Q796.8681021484375,823.72442734375,795.6651021484375,824.9266273437499Q794.4623021484375,826.12872734375,794.4623021484375,827.82862734375ZM980.2827021484375,955.21052734375Q980.2827021484375,956.91052734375,981.4857021484374,958.11252734375Q982.6887021484375,959.31452734375,984.3897021484374,959.31452734375Q986.0917021484374,959.31452734375,987.2947021484375,958.11252734375Q988.4977021484375,956.91052734375,988.4977021484375,955.21052734375Q988.4977021484375,953.51052734375,987.2947021484375,952.30852734375Q986.0917021484374,951.10652734375,984.3897021484374,951.10652734375Q982.6887021484375,951.10652734375,981.4857021484374,952.30852734375Q980.2827021484375,953.51052734375,980.2827021484375,955.21052734375ZM979.2827021484375,955.21052734375Q979.2827021484375,953.0955273437501,980.7787021484376,951.60052734375Q982.2747021484374,950.10652734375,984.3897021484374,950.10652734375Q986.5057021484374,950.10652734375,988.0017021484375,951.60052734375Q989.4977021484375,953.0955273437501,989.4977021484375,955.21052734375Q989.4977021484375,957.32452734375,988.0017021484375,958.81952734375Q986.5057021484374,960.31452734375,984.3897021484374,960.31452734375Q982.2747021484374,960.31452734375,980.7787021484376,958.81952734375Q979.2827021484375,957.32452734375,979.2827021484375,955.21052734375ZM963.3907021484375,941.39752734375Q963.3907021484375,943.09752734375,964.5927021484375,944.29952734375Q965.7957021484375,945.50152734375,967.4977021484375,945.50152734375Q969.1987021484375,945.50152734375,970.4017021484375,944.29952734375Q971.6047021484375,943.09752734375,971.6047021484375,941.39752734375Q971.6047021484375,939.69752734375,970.4017021484375,938.49552734375Q969.1987021484375,937.2935273437499,967.4977021484375,937.2935273437499Q965.7957021484375,937.2935273437499,964.5927021484375,938.49552734375Q963.3897021484374,939.69752734375,963.3907021484375,941.39752734375ZM962.3907021484375,941.39752734375Q962.3897021484374,939.2835273437499,963.8857021484375,937.78852734375Q965.3817021484375,936.2935273437499,967.4977021484375,936.2935273437499Q969.6127021484375,936.2935273437499,971.1087021484375,937.78852734375Q972.6047021484375,939.2835273437499,972.6047021484375,941.39752734375Q972.6047021484375,943.51252734375,971.1087021484375,945.00752734375Q969.6127021484375,946.50152734375,967.4977021484375,946.50152734375Q965.3817021484375,946.50152734375,963.8857021484375,945.00752734375Q962.3907021484375,943.51252734375,962.3907021484375,941.39752734375ZM945.9977021484375,904.2975273437501Q944.2957021484375,904.2975273437501,943.0927021484375,905.4995273437501Q941.8907021484375,906.7015273437501,941.8907021484375,908.40152734375Q941.8907021484375,910.10152734375,943.0927021484375,911.30352734375Q944.2957021484375,912.50552734375,945.9977021484375,912.50552734375Q947.6987021484375,912.50552734375,948.9017021484375,911.30352734375Q950.1047021484375,910.10152734375,950.1047021484375,908.40152734375Q950.1047021484375,906.7015273437501,948.9017021484375,905.4995273437501Q947.6987021484375,904.2975273437501,945.9977021484375,904.2975273437501ZM945.9977021484375,903.2975273437501Q948.1127021484375,903.2975273437501,949.6087021484375,904.79252734375Q951.1047021484375,906.2875273437501,951.1047021484375,908.40152734375Q951.1047021484375,910.51552734375,949.6087021484375,912.01052734375Q948.1127021484375,913.50552734375,945.9977021484375,913.50552734375Q943.8817021484375,913.50552734375,942.3867021484375,912.01052734375Q940.8907021484375,910.51552734375,940.8907021484375,908.40152734375Q940.8907021484375,906.2875273437501,942.3867021484375,904.79252734375Q943.8817021484375,903.2975273437501,945.9977021484375,903.2975273437501ZM794.4623021484375,908.40152734375Q794.4623021484375,910.10152734375,795.6651021484375,911.30352734375Q796.8681021484375,912.50552734375,798.5694021484375,912.50552734375Q800.2707021484375,912.50552734375,801.4737021484375,911.30352734375Q802.6765021484375,910.10152734375,802.6765021484375,908.40152734375Q802.6765021484375,906.7015273437501,801.4737021484375,905.4995273437501Q800.2707021484375,904.2975273437501,798.5694021484375,904.2975273437501Q796.8681021484375,904.2975273437501,795.6651021484375,905.4995273437501Q794.4623021484375,906.7015273437501,794.4623021484375,908.40152734375ZM793.4623021484375,908.40152734375Q793.4623021484375,906.2875273437501,794.9582021484375,904.79252734375Q796.4540021484374,903.2975273437501,798.5694021484375,903.2975273437501Q800.6848021484375,903.2975273437501,802.1806021484375,904.79252734375Q803.6765021484375,906.2875273437501,803.6765021484375,908.40152734375Q803.6765021484375,910.51552734375,802.1806021484375,912.01052734375Q800.6848021484375,913.50552734375,798.5694021484375,913.50552734375Q796.4541021484375,913.50552734375,794.9582021484375,912.01052734375Q793.4623021484375,910.51552734375,793.4623021484375,908.40152734375Z" fill="#DDE1EA" fill-opacity="1" />
        </g>
      </g>
      <g>
        <g>
          <path d="M360.2290436035156,453.26549609375L449.4384436035156,402.88819609375L449.98844360351563,403.86249609375L360.7792436035156,454.23949609375L360.2290436035156,453.26549609375ZM361.0231436035156,555.65149609375L361.0231436035156,453.75249609375L361.58264360351563,453.75249609375L361.3050436035156,454.23749609375L273.1743126035156,403.86099609375003L273.72957360351563,402.88959609375L362.1420436035156,453.42749609375L362.1420436035156,555.65149609375L361.0231436035156,555.65149609375ZM272.09365460351563,401.74589609375L361.58264360351563,350.06245709375L451.35144360351563,401.90749609375L451.35144360351563,505.59749609375L361.58264360351563,557.44249609375L271.81400360351563,505.59749609375L271.81400360351563,401.90749609375L272.09365460351563,401.74589609375ZM272.6532326035156,402.71479609375L272.3734436035156,402.23039609375L272.9328836035156,402.23039609375L272.9328836035156,505.27449609375003L272.3734436035156,505.27449609375003L272.6532326035156,504.78949609375L361.86244360351566,556.3114960937501L361.58264360351563,556.79649609375L361.3028436035156,556.3114960937501L450.51244360351564,504.78949609375L450.79144360351563,505.27449609375003L450.23244360351566,505.27449609375003L450.23244360351566,402.23039609375L450.79144360351563,402.23039609375L450.51244360351564,402.71479609375L361.3028436035156,351.19294509375L361.58264360351563,350.70849609375L361.86244360351566,351.19294509375L272.6532326035156,402.71479609375Z" fill="#DEE2EA" fill-opacity="1" />
        </g>
        <g>
          <path d="M359.9950482910156,452.9691890625L412.64424829101563,423.2009890625L413.5302482910156,424.7678890625L360.8809482910156,454.53608906249997L359.9950482910156,452.9691890625ZM360.6825482910156,513.2892890625L360.6825482910156,453.5287890625L361.58254829101566,453.5287890625L361.1347482910156,454.3094890625L309.6297822910156,424.7650890625L310.52540829101565,423.2037890625L362.48254829101563,453.0074890625L362.48254829101563,513.2892890625L360.6825482910156,513.2892890625ZM308.59813729101563,422.6325890625L361.58254829101566,392.0319690625L415.0172482910156,422.8923890625L415.0172482910156,484.6127890625L361.58254829101566,515.4732890625L308.14824829101565,484.6127890625L308.14824829101565,422.8923890625L308.59813729101563,422.6325890625ZM309.4983592910156,424.1912890625L309.0482482910156,423.41198906249997L309.9482482910156,423.41198906249997L309.9482482910156,484.0932890625L309.0482482910156,484.0932890625L309.4983592910156,483.3138890625L362.0326482910156,513.6542890625L361.58254829101566,514.4342890625L361.13244829101563,513.6542890625L413.6662482910156,483.3138890625L414.11724829101564,484.0932890625L413.2172482910156,484.0932890625L413.2172482910156,423.41198906249997L414.11724829101564,423.41198906249997L413.6662482910156,424.1912890625L361.13244829101563,393.8506480625L361.58254829101566,393.0712890625L362.0326482910156,393.8506480625L309.4983592910156,424.1912890625Z" fill="#DDE1EA" fill-opacity="1" />
        </g>
        <g style="opacity:0.4023840129375458;">
          <path d="M361.27424360351563,453.07746875L361.58264360351563,556.79646875L272.3734436035156,505.27446875L272.3734436035156,402.23046875L361.27424360351563,453.07746875Z" fill="#DEE2EA" fill-opacity="1" />
        </g>
        <g transform="matrix(-1,0,0,1,901.1355590820312,0)" style="opacity:0.1991340070962906;">
          <path d="M539.4685795410156,453.07746875L539.7769795410156,556.79646875L450.5677795410156,505.27446875L450.5677795410156,402.23046875L539.4685795410156,453.07746875Z" fill="#DEE2EA" fill-opacity="1" />
        </g>
      </g>
      <g transform="matrix(0.4995165169239044,-0.866304337978363,0.8657459616661072,0.5004836320877075,-307.65135155908956,258.22892333112213)">
        <path d="M81.40161958007812,415.97803837890626L193.72381958007813,415.97803837890626L218.44381958007813,442.22543837890623L218.07981958007812,442.56823837890624L218.07981958007812,442.06823837890624L281.0438195800781,442.06823837890624L281.0438195800781,443.06823837890624L217.86381958007811,443.06823837890624L193.14481958007812,416.8208383789063L193.50881958007812,416.47803837890626L193.50881958007812,416.97803837890626L81.40161958007812,416.97803837890626L81.40161958007812,415.97803837890626ZM69.88381958007812,406.00233837890624L202.16181958007812,406.00233837890624L224.57581958007813,428.4021383789063L224.22281958007812,428.7558383789062L224.22281958007812,428.2558383789062L264.1508195800781,428.2558383789062L264.1508195800781,429.2558383789062L224.01581958007813,429.2558383789062L201.60081958007814,406.85603837890625L201.95481958007812,406.50233837890624L201.95481958007812,407.00233837890624L69.88381958007812,407.00233837890624L69.88381958007812,406.00233837890624ZM103.66941958007813,395.25933837890625L242.65081958007812,395.25933837890625L242.65081958007812,396.25933837890625L103.66941958007813,396.25933837890625L103.66941958007813,395.25933837890625ZM281.5438195800781,442.56823837890624Q281.5438195800781,444.26813837890626,282.7468195800781,445.47023837890623Q283.94981958007816,446.67243837890624,285.6508195800781,446.67243837890624Q287.3518195800781,446.67243837890624,288.5548195800781,445.47023837890623Q289.75781958007815,444.26813837890626,289.75781958007815,442.56823837890624Q289.75781958007815,440.86833837890623,288.5548195800781,439.66633837890623Q287.3518195800781,438.4641383789062,285.6508195800781,438.4641383789062Q283.94981958007816,438.4641383789062,282.7468195800781,439.66633837890623Q281.5438195800781,440.86833837890623,281.5438195800781,442.56823837890624ZM280.5438195800781,442.56823837890624Q280.5438195800781,440.45393837890623,282.03981958007813,438.9589383789062Q283.5358195800781,437.4641383789062,285.6508195800781,437.4641383789062Q287.76581958007813,437.4641383789062,289.2618195800781,438.9589383789062Q290.75781958007815,440.45393837890623,290.75781958007815,442.56823837890624Q290.75781958007815,444.68253837890626,289.2618195800781,446.17753837890626Q287.76581958007813,447.67243837890624,285.6508195800781,447.67243837890624Q283.5358195800781,447.67243837890624,282.03981958007813,446.17753837890626Q280.5438195800781,444.68253837890626,280.5438195800781,442.56823837890624ZM264.6508195800781,428.7558383789062Q264.6508195800781,430.45573837890623,265.85381958007815,431.65773837890623Q267.0568195800781,432.85993837890624,268.75781958007815,432.85993837890624Q270.45981958007815,432.85993837890624,271.6628195800781,431.65773837890623Q272.8648195800781,430.45573837890623,272.8648195800781,428.7558383789062Q272.8648195800781,427.05583837890623,271.6628195800781,425.85383837890623Q270.45981958007815,424.6516383789062,268.75781958007815,424.6516383789062Q267.0568195800781,424.6516383789062,265.85381958007815,425.85383837890623Q264.6508195800781,427.05583837890623,264.6508195800781,428.7558383789062ZM263.6508195800781,428.7558383789062Q263.6508195800781,426.64143837890623,265.14681958007816,425.14653837890626Q266.64281958007814,423.6516383789062,268.75781958007815,423.6516383789062Q270.87381958007813,423.6516383789062,272.36881958007814,425.14653837890626Q273.8648195800781,426.64143837890623,273.8648195800781,428.7558383789062Q273.8648195800781,430.87013837890623,272.36881958007814,432.36513837890624Q270.87381958007813,433.85993837890624,268.75781958007815,433.85993837890624Q266.64281958007814,433.85993837890624,265.14681958007816,432.36513837890624Q263.6508195800781,430.87013837890623,263.6508195800781,428.7558383789062Z" fill="#DDE1EA" fill-opacity="1" />
      </g>
      <g transform="matrix(-0.4995165169239044,0.866304337978363,-0.8657459616661072,-0.5004836320877075,1270.5059339612453,197.45958206500654)">
        <path d="M589.992409375,485.79835087890626L702.314609375,485.79835087890626L727.034609375,512.0457508789062L726.670609375,512.3885508789062L726.670609375,511.88855087890624L789.634609375,511.88855087890624L789.634609375,512.8885508789062L726.454609375,512.8885508789062L701.735609375,486.6411508789063L702.099609375,486.29835087890626L702.099609375,486.79835087890626L589.992409375,486.79835087890626L589.992409375,485.79835087890626ZM578.474609375,475.82265087890624L710.752609375,475.82265087890624L733.166609375,498.2224508789063L732.8136093749999,498.5761508789062L732.8136093749999,498.0761508789062L772.741609375,498.0761508789062L772.741609375,499.0761508789062L732.6066093750001,499.0761508789062L710.191609375,476.67635087890625L710.545609375,476.32265087890624L710.545609375,476.82265087890624L578.474609375,476.82265087890624L578.474609375,475.82265087890624ZM612.260209375,465.07965087890625L751.241609375,465.07965087890625L751.241609375,466.07965087890625L612.260209375,466.07965087890625L612.260209375,465.07965087890625ZM790.134609375,512.3885508789062Q790.134609375,514.0884508789062,791.337609375,515.2905508789063Q792.540609375,516.4927508789062,794.241609375,516.4927508789062Q795.942609375,516.4927508789062,797.145609375,515.2905508789063Q798.348609375,514.0884508789062,798.348609375,512.3885508789062Q798.348609375,510.68865087890623,797.145609375,509.48665087890623Q795.942609375,508.2844508789062,794.241609375,508.2844508789062Q792.540609375,508.2844508789062,791.337609375,509.48665087890623Q790.134609375,510.68865087890623,790.134609375,512.3885508789062ZM789.134609375,512.3885508789062Q789.134609375,510.27425087890623,790.630609375,508.7792508789062Q792.126609375,507.2844508789062,794.241609375,507.2844508789062Q796.3566093750001,507.2844508789062,797.8526093749999,508.7792508789062Q799.348609375,510.27425087890623,799.348609375,512.3885508789062Q799.348609375,514.5028508789062,797.8526093749999,515.9978508789062Q796.3566093750001,517.4927508789062,794.241609375,517.4927508789062Q792.126609375,517.4927508789062,790.630609375,515.9978508789062Q789.134609375,514.5028508789062,789.134609375,512.3885508789062ZM773.241609375,498.5761508789062Q773.241609375,500.27605087890623,774.444609375,501.47805087890623Q775.647609375,502.68025087890624,777.348609375,502.68025087890624Q779.050609375,502.68025087890624,780.253609375,501.47805087890623Q781.455609375,500.27605087890623,781.455609375,498.5761508789062Q781.455609375,496.87615087890623,780.253609375,495.67415087890623Q779.050609375,494.4719508789062,777.348609375,494.4719508789062Q775.647609375,494.4719508789062,774.444609375,495.67415087890623Q773.241609375,496.87615087890623,773.241609375,498.5761508789062ZM772.241609375,498.5761508789062Q772.241609375,496.46175087890623,773.737609375,494.96685087890626Q775.233609375,493.4719508789062,777.348609375,493.4719508789062Q779.464609375,493.4719508789062,780.959609375,494.96685087890626Q782.455609375,496.46175087890623,782.455609375,498.5761508789062Q782.455609375,500.69045087890623,780.959609375,502.18545087890624Q779.464609375,503.68025087890624,777.348609375,503.68025087890624Q775.233609375,503.68025087890624,773.737609375,502.18545087890624Q772.241609375,500.69045087890623,772.241609375,498.5761508789062Z" fill="#DDE1EA" fill-opacity="1" />
      </g>
    </g>
  </svg>