<svg xmlns="http://www.w3.org/2000/svg" xmlns:xlink="http://www.w3.org/1999/xlink" fill="none" version="1.1" width="32" height="56" viewBox="0 0 32 56"><defs><radialGradient cx="0" cy="0" r="1" gradientUnits="userSpaceOnUse" id="master_svg0_157_5220" gradientTransform="translate(16 47) rotate(90) scale(9 15)"><stop offset="50%" stop-color="#579CF5" stop-opacity="0"/><stop offset="100%" stop-color="#579CF5" stop-opacity="1"/></radialGradient><radialGradient cx="0" cy="0" r="1" gradientUnits="userSpaceOnUse" id="master_svg1_157_5220" gradientTransform="translate(16 47) rotate(90) scale(6 10)"><stop offset="50%" stop-color="#579CF5" stop-opacity="0"/><stop offset="100%" stop-color="#579CF5" stop-opacity="1"/></radialGradient><linearGradient x1="0.5" y1="0.08103381842374802" x2="0.5" y2="1" id="master_svg2_157_4998"><stop offset="0%" stop-color="#FFFFFF" stop-opacity="0"/><stop offset="100%" stop-color="#FFFFFF" stop-opacity="1"/></linearGradient><linearGradient x1="0.610504686832428" y1="-0.011595523916184902" x2="0.610504686832428" y2="1.1026263236999512" id="master_svg3_157_4999"><stop offset="0%" stop-color="#397FD7" stop-opacity="1"/><stop offset="100%" stop-color="#6D9DEA" stop-opacity="1"/></linearGradient><linearGradient x1="0.610504686832428" y1="-0.011595523916184902" x2="0.610504686832428" y2="1.1026263236999512" id="master_svg4_157_5000"><stop offset="0%" stop-color="#7DA7EB" stop-opacity="1"/><stop offset="100%" stop-color="#2E7ADB" stop-opacity="1"/></linearGradient><linearGradient x1="1.167615532875061" y1="0.5455153584480286" x2="0.053393758833408356" y2="0.5455153584480286" id="master_svg5_157_5002"><stop offset="0%" stop-color="#0D6EEA" stop-opacity="1"/><stop offset="100%" stop-color="#AACAFF" stop-opacity="1"/></linearGradient><linearGradient x1="0.610504686832428" y1="-0.011595523916184902" x2="0.610504686832428" y2="1.1026263236999512" id="master_svg6_157_4999"><stop offset="0%" stop-color="#397FD7" stop-opacity="1"/><stop offset="100%" stop-color="#6D9DEA" stop-opacity="1"/></linearGradient></defs><g><g><g><g><ellipse cx="16" cy="47" rx="15" ry="9" fill="url(#master_svg0_157_5220)" fill-opacity="1"/></g></g><g><g><ellipse cx="16" cy="47" rx="10" ry="6" fill="url(#master_svg1_157_5220)" fill-opacity="1"/></g></g><g><ellipse cx="15.999804735183716" cy="47.50000023841858" rx="2.700000047683716" ry="1.2000000476837158" fill="#FFFFFF" fill-opacity="0.6000000238418579"/><ellipse cx="15.999804735183716" cy="47.50000023841858" rx="2.700000047683716" ry="1.2000000476837158" fill-opacity="0" stroke-opacity="0.800000011920929" stroke="#FFFFFF" fill="none" stroke-width="0.6000000238418579"/></g><g><path d="M25,37L18.881,47.5596C18.833,47.6696,18.7713,47.7756,18.6971,47.8768L18.625,48L18.5978,48.001C18.0788,48.5983,17.1098,49,16,49C14.89022,49,13.92118,48.5983,13.40225,48.001L13.375,48L13.299199999999999,47.871700000000004C13.22824,47.7742,13.16881,47.672200000000004,13.12211,47.5666L7,37L25,37Z" fill-rule="evenodd" fill="url(#master_svg2_157_4998)" fill-opacity="1"/></g></g><g><g><path d="M16,3.2685e-13C7.16322,3.2685e-13,0,7.38679,0,16.4994C0,23.3974,13.3391,42.0153,16,42C18.6165,42.0153,32,23.3058,32,16.4994C32,7.38679,24.8368,3.2685e-13,16,3.2685e-13Z" fill-rule="evenodd" fill="url(#master_svg3_157_4999)" fill-opacity="1"/></g><g><path d="M16,3C8.26782,3,2,9.21161,2,16.874499999999998C2,22.6751,13.6717,40.0128,16,40Q15.9785,3,16,3Z" fill-rule="evenodd" fill="url(#master_svg4_157_5000)" fill-opacity="1"/></g><g><g><ellipse cx="15.980036735534668" cy="15.930548667907715" rx="10.60003662109375" ry="10.550548553466797" fill="#FFFFFF" fill-opacity="1"/><ellipse cx="15.980036735534668" cy="15.930548667907715" rx="10.60003662109375" ry="10.550548553466797" stroke="url(#master_svg5_157_5002)" fill-opacity="0" fill="none" stroke-width="0.7599999904632568"/></g></g></g><g><g style="opacity:0;"><rect x="8" y="7" width="16" height="16" rx="0" fill="#000000" fill-opacity="1"/></g><g><path d="M16.62849,9C16.85162,9,17.033839999999998,9.180992,17.033839999999998,9.406308L17.033839999999998,11.59852Q17.033839999999998,12.88578,18.42283,12.9929L20.59464,12.9929C20.81778,12.9929,21,13.17389,21,13.3992L21,21.534599999999998Q21,22.0018,20.537,22L11.462997,22Q11.0316103,22,11,21.534599999999998L11,9.465407Q11,9.0313964,11.462997,9L16.62849,9ZM18.19784,18.574089999999998L13.82075,18.574089999999998C13.59762,18.574089999999998,13.4154,18.75693,13.4154,18.98039C13.4154,19.2039,13.59762,19.386699999999998,13.82075,19.386699999999998L18.19784,19.386699999999998C18.42097,19.386699999999998,18.6032,19.2039,18.6032,18.98039C18.6032,18.75693,18.42097,18.574089999999998,18.19784,18.574089999999998ZM18.19784,16.524079999999998L13.82075,16.524079999999998C13.59762,16.524079999999998,13.4154,16.70692,13.4154,16.93039C13.4154,17.15386,13.59762,17.3367,13.82075,17.3367L18.19784,17.3367C18.42097,17.3367,18.6032,17.15386,18.6032,16.93039C18.6032,16.70692,18.42097,16.524079999999998,18.19784,16.524079999999998ZM18.19784,14.47223L13.82075,14.47223C13.59762,14.47223,13.4154,14.655059999999999,13.4154,14.87853C13.4154,15.102,13.59762,15.284839999999999,13.82075,15.284839999999999L18.19784,15.284839999999999C18.42097,15.284839999999999,18.6032,15.102,18.6032,14.87853C18.6032,14.655059999999999,18.42097,14.47223,18.19784,14.47223ZM17.6864,9.9808C17.6864,9.7888,17.9152,9.6928,18.049599999999998,9.8272L19.8768,11.656C20.0128,11.7904,19.916800000000002,12.024000000000001,19.726399999999998,12.024000000000001L18.1632,12.02326C18.09487,12.01691,17.68493,11.96093,17.6864,11.5312L17.6864,9.9808Z" fill-rule="evenodd" fill="url(#master_svg6_157_4999)" fill-opacity="1"/></g></g></g></svg>