<svg xmlns="http://www.w3.org/2000/svg" xmlns:xlink="http://www.w3.org/1999/xlink" fill="none" version="1.1" width="24.203125" height="24.9599609375" viewBox="0 0 24.203125 24.9599609375"><g style="mix-blend-mode:passthrough"><g style="mix-blend-mode:passthrough"><path d="M1.65789,7.632315101966858C1.09774,8.338295101966857,1.18483,9.376735101966858,1.85088,9.973515101966857L15.0884,21.74035510196686C15.2009,21.840355101966857,15.3679,21.833055101966856,15.4718,21.727355101966857L15.4897,21.707355101966858L21.6671,13.974155101966858C21.765,13.851655101966857,21.75,13.670955101966857,21.6334,13.567355101966857L8.38366,1.794553101966858C8.06603,1.510658101966858,7.65023,1.371943901966858,7.23155,1.4101975619668579C6.8127,1.448422901966858,6.42665,1.659770101966858,6.16128,1.9961401019668579L1.65015,7.632315101966858L1.65789,7.632315101966858ZM4.26113,8.108185101966857L4.93162,8.704875101966858C5.0481,8.808525101966858,5.063,8.989135101966859,4.96517,9.111585101966858L4.39772,9.821835101966858C4.30326,9.940065101966859,4.1375,9.962005101966858,4.0177,9.875995101966858L3.9967,9.859385101966858L3.32375,9.260545101966859C3.20727,9.156885101966857,3.19237,8.97627510196686,3.2902,8.853825101966859L3.85765,8.143575101966858C3.95211,8.025345101966858,4.11787,8.003405101966859,4.23767,8.089415101966857L4.26113,8.108185101966857ZM4.55692,21.71455510196686L0.380558,18.065455101966858C-0.065463,17.675755101966857,-0.12828,16.990155101966856,0.239068,16.52115510196686C0.24397,16.51495510196686,0.24894,16.508755101966855,0.253978,16.502555101966855L0.278282,16.474055101966858C0.648687,16.053555101966857,1.27846,16.00825510196686,1.70232,16.378155101966858L4.961,19.221655101966856L4.9809,19.23755510196686C5.10018,19.32435510196686,5.26607,19.303455101966858,5.36125,19.185855101966858L6.76806,17.44765510196686L6.80071,17.409955101966858C7.17674,16.99675510196686,7.8056,16.96165510196686,8.22298,17.337355101966857C8.66212,17.73265510196686,8.71439,18.41735510196686,8.34064,18.878655101966856L6.15802,21.572355101966856L6.12738,21.608655101966857C5.71906,22.07295510196686,5.02418,22.12285510196686,4.55692,21.71455510196686Z" fill-rule="evenodd" fill="#36A4FF" fill-opacity="1"/></g><g style="opacity:0.3199999928474426;mix-blend-mode:passthrough"><path d="M21.36874109375,17.3043901875L18.57012799375,20.801612187499998C18.48602689375,20.9067121875,18.48359849375,21.0578221875,18.56427649375,21.1657321875L20.22871109375,23.3920121875C20.32419109375,23.5197221875,20.50197109375,23.5434221875,20.62580109375,23.4449621875C20.64260109375,23.4316021875,20.65790109375,23.4163421875,20.67139109375,23.3994521875L24.13850109375,19.0618521875C24.237961093750002,18.9374221875,24.22077109375,18.7534021875,24.10012109375,18.6508421875C24.08797109375,18.6405121875,24.07500109375,18.6312421875,24.061351093749998,18.6231421875L21.72842109375,17.2372326875C21.60870109375,17.1661098875,21.45668109375,17.1944933775,21.36874109375,17.3043901875Z" fill-rule="evenodd" fill="#36A4FF" fill-opacity="1"/></g></g></svg>