<?xml version="1.0" encoding="UTF-8"?>
<svg width="78px" height="150px" viewBox="0 0 78 150" version="1.1" xmlns="http://www.w3.org/2000/svg" xmlns:xlink="http://www.w3.org/1999/xlink">
    <title>事件</title>
    <defs>
        <linearGradient x1="50%" y1="3.69390381%" x2="50%" y2="97.5787492%" id="linearGradient-1">
            <stop stop-color="#FF6262" offset="0%"></stop>
            <stop stop-color="#FF2626" stop-opacity="0.39822409" offset="100%"></stop>
        </linearGradient>
        <linearGradient x1="50%" y1="0%" x2="50%" y2="99.7563716%" id="linearGradient-2">
            <stop stop-color="#E92525" offset="0%"></stop>
            <stop stop-color="#AA1010" offset="100%"></stop>
        </linearGradient>
        <linearGradient x1="50%" y1="0%" x2="50%" y2="100%" id="linearGradient-3">
            <stop stop-color="#FF8F8F" offset="0%"></stop>
            <stop stop-color="#FF2E2E" offset="100%"></stop>
        </linearGradient>
        <polygon id="path-4" points="39 6 67.5788383 22.5 67.5788383 55.5 39 72 10.4211617 55.5 10.4211617 22.5"></polygon>
        <filter x="-22.4%" y="-30.1%" width="144.8%" height="160.2%" filterUnits="objectBoundingBox" id="filter-5">
            <feMorphology radius="4.2" operator="dilate" in="SourceAlpha" result="shadowSpreadOuter1"></feMorphology>
            <feOffset dx="0" dy="0" in="shadowSpreadOuter1" result="shadowOffsetOuter1"></feOffset>
            <feGaussianBlur stdDeviation="5" in="shadowOffsetOuter1" result="shadowBlurOuter1"></feGaussianBlur>
            <feComposite in="shadowBlurOuter1" in2="SourceAlpha" operator="out" result="shadowBlurOuter1"></feComposite>
            <feColorMatrix values="0 0 0 0 1   0 0 0 0 0.160784314   0 0 0 0 0.160784314  0 0 0 0.604245486 0" type="matrix" in="shadowBlurOuter1"></feColorMatrix>
        </filter>
        <linearGradient x1="50%" y1="0%" x2="50%" y2="99.7563716%" id="linearGradient-6">
            <stop stop-color="#FF3030" offset="0%"></stop>
            <stop stop-color="#CE1D1D" offset="100%"></stop>
        </linearGradient>
        <linearGradient x1="0%" y1="0%" x2="0%" y2="98.259775%" id="linearGradient-7">
            <stop stop-color="#FFFFFF" offset="0%"></stop>
            <stop stop-color="#FED3D3" offset="100%"></stop>
        </linearGradient>
    </defs>
    <g id="事件" stroke="none" stroke-width="1" fill="none" fill-rule="evenodd">
        <rect id="矩形" fill="url(#linearGradient-1)" x="37.1" y="68.6" width="3.675" height="77.0104478" rx="1.8375"></rect>
        <ellipse id="椭圆形" fill-opacity="0.664240057" fill="#FF4C4C" cx="38.9375" cy="143.165672" rx="6.7375" ry="3.66716418"></ellipse>
        <g id="多边形备份-3">
            <use fill="black" fill-opacity="1" filter="url(#filter-5)" xlink:href="#path-4"></use>
            <use fill="url(#linearGradient-2)" fill-rule="evenodd" xlink:href="#path-4"></use>
            <path stroke="url(#linearGradient-3)" stroke-width="4.2" d="M39,3.57512887 L69.6788383,21.2875644 L69.6788383,56.7124356 L39,74.4248711 L8.32116168,56.7124356 L8.32116168,21.2875644 L39,3.57512887 Z" fill-opacity="0.3043" fill="#000000" fill-rule="evenodd"></path>
        </g>
        <polygon id="多边形" fill="url(#linearGradient-6)" points="39 12 62.3826859 25.5 62.3826859 52.5 39 66 15.6173141 52.5 15.6173141 25.5"></polygon>
        <path d="M38.9650749,27.625 C45.2586834,27.625 50.3606612,32.6617966 50.3606612,38.875 L50.3606612,48.25 C51.4095959,48.25 52.2599256,49.0894661 52.2599256,50.125 C52.2599256,51.1605339 51.4095959,52 50.3606612,52 L27.5694886,52 C26.5205538,52 25.6702242,51.1605339 25.6702242,50.125 C25.6702242,49.0894661 26.5205538,48.25 27.5694886,48.25 L27.5694886,38.875 C27.5694886,32.6617966 32.6714664,27.625 38.9650749,27.625 Z M38.9210763,34.2583034 L38.8635059,34.3383422 L35.1930138,41.9382189 C35.1229663,42.0880496 35.1988511,42.2570895 35.3395948,42.3092741 L35.4311756,42.3254737 L38.5623014,42.3185585 L38.5693062,47.020939 C38.5693062,47.2690241 38.853546,47.3688633 39.0090735,47.2185373 L39.0666439,47.1384985 L42.737136,39.5386218 C42.8071835,39.388791 42.7312987,39.2197512 42.5905549,39.1675666 L42.4989742,39.151367 L39.3678484,39.1582822 L39.3608436,34.4559017 C39.3608436,34.2078166 39.0766038,34.1079774 38.9210763,34.2583034 Z M27.3400992,28.3908872 L28.0675596,28.9935006 C28.6702076,29.4927219 28.7488143,30.3797219 28.2431326,30.9746707 C27.7374509,31.5696194 26.8389722,31.6472219 26.2363242,31.1480006 L25.5088637,30.5453872 C24.9062158,30.0461659 24.8276091,29.1591659 25.3332908,28.5642171 C25.8389725,27.9692684 26.7374512,27.8916659 27.3400992,28.3908872 Z M52.6667092,28.5642171 C53.1264199,29.1050796 53.1032475,29.8873069 52.6424568,30.4001324 L52.4911363,30.5453872 L51.7636758,31.1480006 C51.1610278,31.6472219 50.2625491,31.5696194 49.7568674,30.9746707 C49.2971568,30.4338082 49.3203291,29.651581 49.7811199,29.1387554 L49.9324404,28.9935006 L50.6599008,28.3908872 C51.2625488,27.8916659 52.1610275,27.9692684 52.6667092,28.5642171 Z M32.9566103,24.255303 L33.3579422,25.1049665 C33.6904164,25.8088509 33.3819448,26.6455421 32.6689515,26.9737688 C31.9559582,27.3019954 31.1084393,26.9974647 30.7759651,26.2935804 L30.3746331,25.4439168 C30.0421589,24.7400325 30.3506306,23.9033412 31.0636239,23.5751146 C31.7766172,23.2468879 32.6241361,23.5514186 32.9566103,24.255303 Z M46.9894049,23.5751146 C47.6429821,23.875989 47.9566488,24.604115 47.748298,25.26555 L47.6783956,25.4439168 L47.2770637,26.2935804 C46.9445895,26.9974647 46.0970706,27.3019954 45.3840773,26.9737688 C44.7305001,26.6728943 44.4168335,25.9447684 44.6251842,25.2833333 L44.6950866,25.1049665 L45.0964185,24.255303 C45.4288927,23.5514186 46.2764116,23.2468879 46.9894049,23.5751146 Z M38.9650749,22 C39.751776,22 40.3895232,22.6295996 40.3895232,23.40625 L40.3895232,24.34375 C40.3895232,25.1204004 39.751776,25.75 38.9650749,25.75 C38.1783738,25.75 37.5406266,25.1204004 37.5406266,24.34375 L37.5406266,23.40625 C37.5406266,22.6295996 38.1783738,22 38.9650749,22 Z" id="形状结合" fill="url(#linearGradient-7)" fill-rule="nonzero"></path>
    </g>
</svg>